<svg xmlns="http://www.w3.org/2000/svg" width="1600" height="800" viewBox="0 0 1600 800"><rect width="100%" height="100%" fill="#DDDDDD"/><path fill="#999999" d="M387.205 450.575h24.44v17.39h-75.2v-17.39h27.54v-79.24q0-4.7.28-9.68l-19.55 16.35q-1.69 1.32-3.34 1.65-1.64.33-3.1.04-1.46-.28-2.59-.98-1.12-.71-1.69-1.55l-7.33-10.06 41.45-35.25h19.09zm125.58-118.53-40.33 49.35-4.7 5.82q3.95-1.97 8.51-3.05t9.82-1.08q7.71 0 15 2.54 7.28 2.53 12.83 7.66 5.54 5.12 8.93 12.73 3.38 7.62 3.38 17.77 0 9.49-3.48 17.81-3.47 8.32-9.77 14.53-6.3 6.2-15.18 9.77-8.89 3.57-19.6 3.57-10.91 0-19.55-3.47-8.65-3.48-14.76-9.73t-9.35-15.04q-3.25-8.79-3.25-19.51 0-9.59 3.9-19.69 3.9-10.11 12.08-21.01l32.43-43.52q1.69-2.26 4.94-3.86 3.24-1.59 7.47-1.59zm-35.06 118.44q5.54 0 10.2-1.88 4.65-1.88 7.99-5.27 3.33-3.38 5.21-7.94t1.88-9.92q0-5.83-1.78-10.48-1.79-4.65-5.08-7.9-3.29-3.24-7.89-4.93-4.61-1.69-10.16-1.69-5.54 0-10.05 1.88-4.52 1.88-7.71 5.21-3.2 3.34-4.98 7.9-1.79 4.56-1.79 9.82 0 5.64 1.55 10.3 1.55 4.65 4.61 7.94 3.05 3.29 7.56 5.12 4.52 1.84 10.44 1.84m159.05-50.48q0 17.76-3.81 30.88-3.81 13.11-10.53 21.66-6.72 8.56-15.88 12.74-9.17 4.18-19.79 4.18t-19.69-4.18q-9.08-4.18-15.75-12.74-6.67-8.55-10.43-21.66-3.76-13.12-3.76-30.88 0-17.86 3.76-30.93 3.76-13.06 10.43-21.62 6.67-8.55 15.75-12.74 9.07-4.18 19.69-4.18t19.79 4.18q9.16 4.19 15.88 12.74 6.72 8.56 10.53 21.62 3.81 13.07 3.81 30.93m-23.97 0q0-14.76-2.17-24.44-2.16-9.68-5.78-15.42-3.62-5.73-8.32-8.04-4.7-2.3-9.77-2.3-4.98 0-9.64 2.3-4.65 2.31-8.22 8.04-3.57 5.74-5.69 15.42-2.11 9.68-2.11 24.44t2.11 24.44q2.12 9.68 5.69 15.41 3.57 5.74 8.22 8.04 4.66 2.3 9.64 2.3 5.07 0 9.77-2.3t8.32-8.04q3.62-5.73 5.78-15.41 2.17-9.68 2.17-24.44m133.01 0q0 17.76-3.81 30.88-3.81 13.11-10.53 21.66-6.72 8.56-15.88 12.74-9.17 4.18-19.79 4.18t-19.69-4.18q-9.08-4.18-15.75-12.74-6.67-8.55-10.43-21.66-3.76-13.12-3.76-30.88 0-17.86 3.76-30.93 3.76-13.06 10.43-21.62 6.67-8.55 15.75-12.74 9.07-4.18 19.69-4.18t19.79 4.18q9.16 4.19 15.88 12.74 6.72 8.56 10.53 21.62 3.81 13.07 3.81 30.93m-23.97 0q0-14.76-2.17-24.44-2.16-9.68-5.78-15.42-3.62-5.73-8.32-8.04-4.7-2.3-9.77-2.3-4.98 0-9.64 2.3-4.65 2.31-8.22 8.04-3.57 5.74-5.69 15.42-2.11 9.68-2.11 24.44t2.11 24.44q2.12 9.68 5.69 15.41 3.57 5.74 8.22 8.04 4.66 2.3 9.64 2.3 5.07 0 9.77-2.3t8.32-8.04q3.62-5.73 5.78-15.41 2.17-9.68 2.17-24.44m173.24 36.85-12.32 12.12-31.86-31.86-32.15 32.05-12.31-12.13 32.14-32.24-30.64-30.64 12.22-12.22 30.64 30.64 30.46-30.45 12.41 12.22-30.55 30.55zm110.35 14.47q5.74 0 10.06-1.64 4.33-1.65 7.29-4.56 2.96-2.92 4.46-6.96 1.51-4.04 1.51-8.74 0-11.19-6.21-16.92-6.2-5.73-17.11-5.73-10.9 0-17.1 5.73-6.21 5.73-6.21 16.92 0 4.7 1.51 8.74 1.5 4.04 4.46 6.96 2.96 2.91 7.29 4.56 4.32 1.64 10.05 1.64m0-103.3q-5.17 0-8.93 1.59-3.76 1.6-6.25 4.28t-3.66 6.16q-1.18 3.48-1.18 7.33 0 4.04.99 7.85t3.34 6.77 6.2 4.74q3.85 1.79 9.49 1.79t9.5-1.79q3.85-1.78 6.2-4.74t3.34-6.77.99-7.85q0-3.85-1.23-7.33-1.22-3.48-3.66-6.16-2.45-2.68-6.21-4.28-3.76-1.59-8.93-1.59m22.94 49.06q12.41 4.05 18.33 12.36 5.92 8.32 5.92 20.36 0 9.02-3.43 16.35t-9.63 12.5q-6.21 5.17-14.9 7.99-8.7 2.82-19.23 2.82-10.52 0-19.22-2.82-8.69-2.82-14.9-7.99-6.2-5.17-9.63-12.5t-3.43-16.35q0-12.04 5.92-20.36 5.92-8.31 18.33-12.36-9.87-4.13-14.81-11.75-4.93-7.61-4.93-18.33 0-7.7 3.15-14.38 3.15-6.67 8.79-11.61 5.64-4.93 13.49-7.71 7.84-2.77 17.24-2.77t17.25 2.77q7.85 2.78 13.49 7.71 5.64 4.94 8.79 11.61 3.15 6.68 3.15 14.38 0 10.72-4.93 18.33-4.94 7.62-14.81 11.75m135.92 2.92q0 17.76-3.8 30.88-3.81 13.11-10.53 21.66-6.72 8.56-15.89 12.74-9.16 4.18-19.78 4.18-10.63 0-19.7-4.18t-15.74-12.74q-6.68-8.55-10.44-21.66-3.76-13.12-3.76-30.88 0-17.86 3.76-30.93 3.76-13.06 10.44-21.62 6.67-8.55 15.74-12.74 9.07-4.18 19.7-4.18 10.62 0 19.78 4.18 9.17 4.19 15.89 12.74 6.72 8.56 10.53 21.62 3.8 13.07 3.8 30.93m-23.97 0q0-14.76-2.16-24.44t-5.78-15.42q-3.62-5.73-8.32-8.04-4.7-2.3-9.77-2.3-4.99 0-9.64 2.3-4.65 2.31-8.22 8.04-3.58 5.74-5.69 15.42-2.12 9.68-2.12 24.44t2.12 24.44q2.11 9.68 5.69 15.41 3.57 5.74 8.22 8.04t9.64 2.3q5.07 0 9.77-2.3t8.32-8.04q3.62-5.73 5.78-15.41t2.16-24.44m133.01 0q0 17.76-3.8 30.88-3.81 13.11-10.53 21.66-6.72 8.56-15.89 12.74-9.16 4.18-19.78 4.18-10.63 0-19.7-4.18t-15.74-12.74q-6.68-8.55-10.44-21.66-3.76-13.12-3.76-30.88 0-17.86 3.76-30.93 3.76-13.06 10.44-21.62 6.67-8.55 15.74-12.74 9.07-4.18 19.7-4.18 10.62 0 19.78 4.18 9.17 4.19 15.89 12.74 6.72 8.56 10.53 21.62 3.8 13.07 3.8 30.93m-23.97 0q0-14.76-2.16-24.44t-5.78-15.42q-3.62-5.73-8.32-8.04-4.7-2.3-9.77-2.3-4.99 0-9.64 2.3-4.65 2.31-8.22 8.04-3.58 5.74-5.69 15.42-2.12 9.68-2.12 24.44t2.12 24.44q2.11 9.68 5.69 15.41 3.57 5.74 8.22 8.04t9.64 2.3q5.07 0 9.77-2.3t8.32-8.04q3.62-5.73 5.78-15.41t2.16-24.44"/></svg>